<svg xmlns="http://www.w3.org/2000/svg" viewBox="2 22 98 74" width="980" height="740"><style>@import url('https://fonts.googleapis.com/css2?family=Sora:wght@600&amp;family=Newsreader:opsz,wght@6..72,600&amp;display=swap');</style><defs><linearGradient id="eg" x1="12" y1="14" x2="88" y2="88" gradientUnits="userSpaceOnUse"><stop offset="0" stop-color="#12C2C9"/><stop offset="1" stop-color="#7C3AED"/></linearGradient></defs><rect x="4" y="24" width="94" height="68" rx="12" fill="url(#eg)"/><path d="M36,50 L19,34" fill="none" stroke="#FFFFFF" stroke-width="6.5" stroke-linecap="round" stroke-linejoin="round"/><path d="M36,50 L13,50" fill="none" stroke="#FFFFFF" stroke-width="6.5" stroke-linecap="round" stroke-linejoin="round"/><path d="M36,50 L19,66" fill="none" stroke="#FFFFFF" stroke-width="6.5" stroke-linecap="round" stroke-linejoin="round"/><path d="M36,50 L76,50" fill="none" stroke="#FFFFFF" stroke-width="6.5" stroke-linecap="round" stroke-linejoin="round"/><path d="M76,50 L90,40" fill="none" stroke="#FFFFFF" stroke-width="6.5" stroke-linecap="round" stroke-linejoin="round"/><path d="M76,50 L90,60" fill="none" stroke="#FFFFFF" stroke-width="6.5" stroke-linecap="round" stroke-linejoin="round"/><circle cx="36" cy="50" r="10.5" fill="#FFFFFF"/><circle cx="19" cy="34" r="4.5" fill="#FFFFFF"/><circle cx="13" cy="50" r="4.5" fill="#FFFFFF"/><circle cx="19" cy="66" r="4.5" fill="#FFFFFF"/><circle cx="76" cy="50" r="2.6" fill="#FFFFFF"/><circle cx="90" cy="40" r="4.5" fill="#FFFFFF"/><circle cx="90" cy="60" r="4.5" fill="#FFFFFF"/><text x="36" y="49.10" text-anchor="middle" fill="#0E1B33" font-family="'Newsreader', serif" font-size="5" font-weight="600" letter-spacing="-0.3">Eissa</text><text x="36" y="54.30" text-anchor="middle" fill="#0E1B33" font-family="'Newsreader', serif" font-size="5" font-weight="600" letter-spacing="-0.3">Lab</text><text x="51.5" y="86" text-anchor="middle" fill="#FFFFFF" font-family="'Newsreader', serif" font-size="4.4" font-weight="500" letter-spacing="0.05">Cognition · Computation · Neuroscience</text></svg>